# AST/ASF file generated using VICON BodyLanguage
# -----------------------------------------------
:version 1.10
:name VICON
:units
  mass 1.0
  length 0.45
  angle deg
:documentation
   .ast/.asf automatically generated from VICON data using
   VICON BodyBuilder and BodyLanguage model FoxedUp or BRILLIANT.MOD
:root
   order TX TY TZ RX RY RZ
   axis XYZ
   position 0 0 0  
   orientation 0 0 0 
:bonedata
  begin
     id 1 
     name lhipjoint
     direction 0.643824 -0.71708 0.266994 
     length 2.52133 
     axis 0 0 0  XYZ
  end
  begin
     id 2 
     name lfemur
     direction 0.34202 -0.939693 0  
     length 7.51824  
     axis 0 0 20  XYZ
    dof rx ry rz
    limits (-160.0 20.0)
           (-70.0 70.0)
           (-60.0 70.0)
  end
  begin
     id 3 
     name ltibia
     direction 0.34202 -0.939693 0   
     length 7.3685   
     axis 0 0 20   XYZ
    dof rx
    limits (-10.0 170.0)
  end
  begin
     id 4 
     name lfoot
     direction 0.105419 -0.289636 0.951314   
     length 2.20972   
     axis -90 7.62852e-016 20   XYZ
    dof rx rz
    limits (-45.0 90.0)
           (-70.0 20.0)
  end
  begin
     id 5 
     name ltoes
     direction 1.53549e-011 -4.21833e-011 1   
     length 1.10139   
     axis -90 7.62852e-016 20   XYZ
    dof rx
    limits (-90.0 20.0)
  end
  begin
     id 6 
     name rhipjoint
     direction -0.608823 -0.743445 0.276811   
     length 2.43192  
     axis 0 0 0  XYZ 
  end
  begin
     id 7 
     name rfemur
     direction -0.34202 -0.939693 0   
     length 7.69715   
     axis 0 0 -20   XYZ
    dof rx ry rz
    limits (-160.0 20.0)
           (-70.0 70.0)
           (-70.0 60.0)
  end
  begin
     id 8 
     name rtibia
     direction -0.34202 -0.939693 0   
     length 7.44924   
     axis 0 0 -20   XYZ
    dof rx
    limits (-10.0 170.0)
 end
 begin
     id 9 
     name rfoot
     direction -0.103614 -0.284677 0.953007   
     length 2.22623  
     axis -90 -7.62852e-016 -20   XYZ
    dof rx rz
    limits (-45.0 90.0)
           (-20.0 70.0)
  end
  begin
     id 10 
     name rtoes
     direction -1.53537e-011 -4.22026e-011 1   
     length 1.11   
     axis -90 -7.62852e-016 -20   XYZ
    dof rx
    limits (-90.0 20.0)
  end
  begin
     id 11 
     name lowerback
     direction -0.0101212 0.99662 -0.0815298   
     length 2.08277   
     axis 0 0 0   XYZ
    dof rx ry rz
    limits (-20.0 45.0)
           (-30.0 30.0)
           (-30.0 30.0)
  end
  begin
     id 12 
     name upperback
     direction 0.024314 0.999591 -0.0150645   
     length 2.08524   
     axis 0 0 0   XYZ
    dof rx ry rz
    limits (-20.0 45.0)
           (-30.0 30.0)
           (-30.0 30.0)
  end
  begin
     id 13 
     name thorax
     direction 0.0285959 0.999323 0.0231357   
     length 2.09645   
     axis 0 0 0   XYZ
    dof rx ry rz
    limits (-20.0 45.0)
           (-30.0 30.0)
           (-30.0 30.0)
  end
  begin
     id 14 
     name lowerneck
     direction -0.065512 0.979301 0.191515   
     length 1.63798   
     axis 0 0 0   XYZ
    dof rx ry rz
    limits (-20.0 45.0)
           (-30.0 30.0)
           (-30.0 30.0)
  end
  begin
     id 15 
     name upperneck
     direction 0.0498479 0.98191 -0.182667   
     length 1.68731   
     axis 0 0 0   XYZ
    dof rx ry rz
    limits (-20.0 45.0)
           (-30.0 30.0)
           (-30.0 30.0)
  end
  begin
     id 16
     name head
     direction 0.0230358 0.996257 -0.0833175  
     length 1.69785  
     axis 0 0 0   XYZ
    dof rx ry rz
    limits (-20.0 45.0)
           (-30.0 30.0)
           (-30.0 30.0)
  end
  begin
     id 17 
     name lclavicle
     direction 0.967963 0.201165 -0.150269  
     length 3.63976  
     axis 0 0 0   XYZ
    dof ry rz
    limits (-20.0 10.0)
           (0.0 20.0)
  end
  begin
     id 18 
     name lhumerus
     direction 1 -4.48954e-011 -2.92837e-028   
     length 5.32462   
     axis 180 -30 -90   XYZ
    dof rx ry rz
    limits (-60.0 90.0)
           (-90.0 90.0)
           (-90.0 90.0)
  end
  begin
     id 19
     name lradius
     direction 1 -4.48958e-011 -6.39511e-027   
     length 3.48402   
     axis 180 -30 -90   XYZ
    dof rx
    limits (-10.0 170.0)
  end
  begin
     id 20
     name lwrist
     direction 1 -4.48975e-011 -1.1413e-026   
     length 1.74201   
     axis 6.88575e-015 90 90   XYZ
    dof ry
    limits (-180.0 0.0)
 end
  begin
     id 21 
     name lhand
     direction 1 -4.48899e-011 -2.28192e-026   
     length 0.572476   
     axis 1.45643e-014 90 90   XYZ
    dof rx rz
    limits (-90.0 90.0)
           (-45.0 45.0)
  end
  begin
     id 22 
     name lfingers
     direction 1 -4.49155e-011 -4.5684e-026   
     length 0.461545   
     axis 2.91283e-014 90 90   XYZ
    dof rx
    limits (0.0 90.0)
  end
  begin
     id 23
     name lthumb
     direction 0.707107 -6.34943e-011 0.707107   
     length 0.662688   
     axis -90 45 -2.25915e-014   XYZ
    dof rx rz
    limits (-45.0 45.0)
           (-45.0 45.0)
  end
  begin
     id 24 
     name rclavicle
     direction -0.964103 0.264019 -0.0282629   
     length 3.54491  
     axis 0 0 0   XYZ 
    dof ry rz
    limits (-10.0 20.0)
           (-20.0 0.0)
  end
  begin
     id 25 
     name rhumerus
     direction -1 -4.48964e-011 -2.45032e-027  
     length 5.33589   
     axis 180 30 90   XYZ
    dof rx ry rz
    limits (-90.0 60.0)
           (-90.0 90.0)
           (-90.0 90.0)
  end
  begin
     id 26 
     name rradius
     direction -1 -4.48987e-011 -1.55093e-027   
     length 3.64134   
     axis 180 30 90   XYZ
    dof rx
    limits (-10.0 170.0)
  end
  begin
     id 27 
     name rwrist
     direction -1 -4.4897e-011 -1.14128e-026   
     length 1.82067   
     axis 6.88575e-015 -90 -90   XYZ
    dof ry
    limits (-180.0 0.0)
  end
  begin
     id 28
     name rhand
     direction -1 -4.49021e-011 -2.28301e-026   
     length 0.734811   
     axis 1.45643e-014 -90 -90   XYZ
    dof rx rz
    limits (-90.0 90.0)
           (-45.0 45.0)
  end
  begin
     id 29
     name rfingers
     direction -1 -4.48862e-011 -4.56319e-026   
     length 0.592424   
     axis 2.91283e-014 -90 -90   XYZ
    dof rx
    limits (0.0 90.0)
  end
  begin
     id 30
     name rthumb
     direction -0.707107 -6.34978e-011 0.707107   
     length 0.850605   
     axis -90 -45 2.25915e-014   XYZ
    dof rx rz
    limits (-45.0 45.0)
           (-45.0 45.0)
  end
:hierarchy
  begin
    root lhipjoint rhipjoint lowerback
    lhipjoint lfemur
    lfemur ltibia
    ltibia lfoot
    lfoot ltoes
    rhipjoint rfemur
    rfemur rtibia
    rtibia rfoot
    rfoot rtoes
    lowerback upperback
    upperback thorax
    thorax lowerneck lclavicle rclavicle
    lowerneck upperneck
    upperneck head
    lclavicle lhumerus
    lhumerus lradius
    lradius lwrist
    lwrist lhand lthumb
    lhand lfingers
    rclavicle rhumerus
    rhumerus rradius
    rradius rwrist
    rwrist rhand rthumb
    rhand rfingers
  end

#!OML:ASF F:\VICON\USERDATA\INSTALL\rory3\rory3.ASF
:FULLY-SPECIFIED
:DEGREES
133
root 1.0167 17.9715 -0.387989 2.56715 24.1056 -5.33159
lowerback -0.0914566 3.27071 -2.87722
upperback -1.83883 4.28869 -5.44536
thorax -1.63409 2.15883 -4.0568
lowerneck -21.0438 -12.3898 -15.4103
upperneck 9.79191 -14.4414 12.639
head 8.50653 -6.35263 4.57505
rclavicle -8.70677e-014 5.725e-014
rhumerus 48.2201 2.11938 6.69096
rradius 63.1828
rwrist 48.3037
rhand -61.9643 2.85481
rfingers 7.12502
rthumb -34.0198 -23.9246
lclavicle -8.70677e-014 5.725e-014
lhumerus -31.5106 15.1793 67.3941
lradius 31.4657
lwrist -6.3152
lhand -9.9858 26.7664
lfingers 7.12502
lthumb 15.9973 56.1258
rfemur -3.79431 -9.79661 22.1306
rtibia 25.6311
rfoot -27.6672 -22.9073
rtoes 3.34841
lfemur -12.9081 -3.76943 -15.761
ltibia 26.6906
lfoot -16.1285 -9.55304
ltoes -11.0076
134
root 1.0233 17.9736 -0.389566 2.63203 24.2778 -5.35999
lowerback -0.0340132 3.18932 -2.89816
upperback -1.7835 4.17963 -5.41358
thorax -1.61835 2.10467 -4.01224
lowerneck -21.428 -12.3991 -15.622
upperneck 9.83487 -14.3601 12.7831
head 8.60043 -6.29215 4.65736
rclavicle -3.10104e-014 3.81667e-014
rhumerus 47.8264 1.44528 6.11674
rradius 62.8796
rwrist 48.2815
rhand -61.9507 3.16688
rfingers 7.12502
rthumb -34.0069 -23.6154
lclavicle -3.10104e-014 3.81667e-014
lhumerus -31.4219 15.2646 67.5307
lradius 31.5713
lwrist -6.15034
lhand -10.0749 26.9165
lfingers 7.12502
lthumb 15.9115 56.2829
rfemur -3.95897 -9.91263 22.1504
rtibia 25.7874
rfoot -27.6515 -22.94
rtoes 3.38793
lfemur -12.993 -3.91707 -15.7389
ltibia 26.6687
lfoot -16.109 -9.54602
ltoes -11.0806
135
root 1.02979 17.9759 -0.389604 2.66893 24.4849 -5.36822
lowerback 0.0606368 3.13421 -2.92473
upperback -1.79395 4.09928 -5.44355
thorax -1.68587 2.0648 -4.03443
lowerneck -21.599 -12.3893 -15.8972
upperneck 9.9929 -14.3253 13.1443
head 8.73169 -6.24528 4.82267
rclavicle -3.85642e-014 4.13472e-014
rhumerus 47.3934 0.869861 5.31641
rradius 62.391
rwrist 48.2859
rhand -61.9852 2.86
rfingers 7.12502
rthumb -34.0397 -23.9149
lclavicle -3.85642e-014 4.13472e-014
lhumerus -31.4333 15.4112 67.4035
lradius 31.5152
lwrist -6.54331
lhand -9.99574 26.649
lfingers 7.12502
lthumb 15.9877 56.0093
rfemur -4.07426 -10.1338 22.141
rtibia 25.9408
rfoot -27.495 -22.9904
rtoes 2.95056
lfemur -13.0445 -4.08153 -15.7284
ltibia 26.6352
lfoot -16.0432 -9.68876
ltoes -10.6519
136
root 1.03548 17.9789 -0.387676 2.71639 24.6688 -5.37876
lowerback 0.0933359 3.08967 -2.95697
upperback -1.78902 4.03779 -5.48991
thorax -1.70107 2.03449 -4.06589
lowerneck -21.6458 -12.4084 -15.7908
upperneck 9.97289 -14.355 13.0525
head 8.72015 -6.26132 4.76797
rclavicle 7.15625e-015 -6.04305e-014
rhumerus 47.0535 0.23815 4.39778
rradius 61.7163
rwrist 48.2669
rhand -61.9915 2.24206
rfingers 7.12502
rthumb -34.0456 -24.5316
lclavicle 7.15625e-015 -6.04305e-014
lhumerus -31.3333 15.6843 67.2023
lradius 31.3176
lwrist -6.96858
lhand -9.82922 26.2517
lfingers 7.12502
lthumb 16.1481 55.599
rfemur -4.19526 -10.3034 22.1421
rtibia 26.1023
rfoot -27.3318 -23.0994
rtoes 2.36034
lfemur -13.0988 -4.22722 -15.7181
ltibia 26.5806
lfoot -15.9908 -9.77035
ltoes -10.6994
137
root 1.04116 17.9808 -0.384047 2.76212 24.8682 -5.37379
lowerback 0.143723 3.05594 -3.04232
upperback -1.81928 3.98677 -5.51125
thorax -1.76751 2.01016 -4.04454
lowerneck -21.6044 -12.4385 -15.6765
upperneck 9.98504 -14.3992 12.8521
head 8.69615 -6.29751 4.67487
rclavicle -5.1684e-015 -4.13472e-014
rhumerus 46.6023 -0.435483 3.53252
rradius 61.0962
rwrist 48.269
rhand -61.8206 2.35665
rfingers 7.12502
rthumb -33.8833 -24.4529
lclavicle -5.1684e-015 -4.13472e-014
lhumerus -31.3596 15.9436 66.9763
lradius 31.1489
lwrist -7.45371
lhand -9.3241 25.2569
lfingers 7.12502
lthumb 16.6344 54.5641
rfemur -4.277 -10.4266 22.1382
rtibia 26.2372
rfoot -27.2912 -23.1762
rtoes 2.12616
lfemur -13.1495 -4.34335 -15.7259
ltibia 26.5237
lfoot -15.9135 -9.8958
ltoes -10.5373
138
root 1.04708 17.9833 -0.38066 2.7688 25.0359 -5.33994
lowerback 0.278597 3.04143 -3.15604
upperback -1.87385 3.95355 -5.53961
thorax -1.90714 1.99514 -4.02144
lowerneck -21.5114 -12.4352 -15.746
upperneck 10.011 -14.3991 12.8849
head 8.69819 -6.3012 4.69953
rclavicle 4.17448e-015 -1.27222e-014
rhumerus 46.0669 -1.20642 2.66387
rradius 60.5084
rwrist 48.0798
rhand -61.5188 1.0774
rfingers 7.12502
rthumb -33.5965 -25.795
lclavicle 4.17448e-015 -1.27222e-014
lhumerus -31.505 16.0284 66.7484
lradius 31.0778
lwrist -7.89081
lhand -8.74014 24.3171
lfingers 7.12502
lthumb 17.1966 53.5761
rfemur -4.29397 -10.555 22.0801
rtibia 26.3675
rfoot -27.3081 -23.1191
rtoes 2.18476
lfemur -13.121 -4.42797 -15.7638
ltibia 26.4654
lfoot -15.7261 -10.057
ltoes -9.61176
139
root 1.05437 17.9866 -0.379091 2.74223 25.1969 -5.44198
lowerback 0.343779 3.02707 -3.12555
upperback -1.90219 3.92884 -5.54304
thorax -1.97189 1.98232 -4.04702
lowerneck -21.2645 -12.3797 -15.8653
upperneck 9.73577 -14.3402 13.0998
head 8.58568 -6.27138 4.81193
rclavicle 4.85035e-014 -3.18055e-015
rhumerus 45.5745 -2.07102 1.84084
rradius 59.8309
rwrist 47.6821
rhand -61.0484 -2.5992
rfingers 7.12502
rthumb -33.1494 -29.5678
lclavicle 4.85035e-014 -3.18055e-015
lhumerus -31.6164 15.6337 66.7977
lradius 31.2527
lwrist -7.3912
lhand -9.1221 24.9917
lfingers 7.12502
lthumb 16.8289 54.2824
rfemur -4.33083 -10.6998 22.1354
rtibia 26.4763
rfoot -27.3684 -22.9705
rtoes 2.56779
lfemur -13.1245 -4.54487 -15.6693
ltibia 26.4254
lfoot -15.443 -10.214
ltoes -8.03972
140
root 1.06167 17.9873 -0.380035 2.74882 25.363 -5.48814
lowerback 0.386203 3.02163 -3.12061
upperback -1.87806 3.92038 -5.56778
thorax -1.96918 1.97803 -4.07703
lowerneck -21.2654 -12.378 -15.753
upperneck 9.59651 -14.3469 13.0598
head 8.52763 -6.27448 4.78083
rclavicle 4.96962e-014 3.18055e-015
rhumerus 45.0665 -3.08824 1.0406
rradius 59.0608
rwrist 47.3641
rhand -60.7764 -4.18393
rfingers 7.12502
rthumb -32.8907 -31.2071
lclavicle 4.96962e-014 3.18055e-015
lhumerus -31.566 15.0672 66.997
lradius 31.4801
lwrist -6.67835
lhand -9.57406 25.8325
lfingers 7.12502
lthumb 16.3938 55.1597
rfemur -4.37773 -10.7933 22.1453
rtibia 26.5756
rfoot -27.5085 -22.8035
rtoes 3.23539
lfemur -13.1695 -4.69286 -15.6332
ltibia 26.3982
lfoot -15.3908 -10.3042
ltoes -7.96975
141
root 1.06839 17.9855 -0.379621 2.67797 25.5854 -5.55589
lowerback 0.514867 2.98247 -3.06279
upperback -1.82398 3.86397 -5.56464
thorax -1.98463 1.94897 -4.1106
lowerneck -21.5512 -12.4259 -15.693
upperneck 9.78403 -14.3744 12.9112
head 8.62242 -6.28446 4.70513
rclavicle -2.24627e-014 5.08889e-014
rhumerus 44.5672 -4.19353 0.283413
rradius 58.3413
rwrist 46.9673
rhand -60.6031 -4.24921
rfingers 7.12502
rthumb -32.7258 -31.3069
lclavicle -2.24627e-014 5.08889e-014
lhumerus -31.4849 14.8574 67.0756
lradius 31.5537
lwrist -6.51714
lhand -9.71442 25.8737
lfingers 7.12502
lthumb 16.2586 55.212
rfemur -4.33751 -10.9459 22.1766
rtibia 26.6454
rfoot -27.6149 -22.7241
rtoes 3.53526
lfemur -13.1735 -4.75549 -15.5747
ltibia 26.3993
lfoot -15.6394 -10.4734
ltoes -9.42895
